<mxfile host="app.diagrams.net" agent="Mozilla/5.0 (Windows NT 10.0; Win64; x64) AppleWebKit/537.36 (KHTML, like Gecko) Chrome/138.0.0.0 Safari/537.36" version="28.0.9">
  <diagram id="arch-fixed-2" name="Architecture">
    <mxGraphModel dx="1901" dy="991" grid="1" gridSize="10" guides="1" tooltips="1" connect="1" arrows="1" fold="1" page="1" pageScale="1" pageWidth="1800" pageHeight="1000" math="0" shadow="0">
      <root>
        <mxCell id="0" />
        <mxCell id="1" parent="0" />
        <mxCell id="sepTopUI" style="shape=line;dashed=1;strokeColor=#d9d9d9;" parent="1" vertex="1">
          <mxGeometry x="120" y="50" width="1450" height="1" as="geometry" />
        </mxCell>
        <mxCell id="sepStrategy" style="shape=line;dashed=1;strokeColor=#d9d9d9;" parent="1" vertex="1">
          <mxGeometry x="120" y="200" width="1450" height="1" as="geometry" />
        </mxCell>
        <mxCell id="sepFeature" style="shape=line;dashed=1;strokeColor=#d9d9d9;" parent="1" vertex="1">
          <mxGeometry x="120" y="350" width="1450" height="1" as="geometry" />
        </mxCell>
        <mxCell id="sepDataSrc" style="shape=line;dashed=1;strokeColor=#d9d9d9;" parent="1" vertex="1">
          <mxGeometry x="120" y="530" width="1450" height="1" as="geometry" />
        </mxCell>
        <mxCell id="sepDB" style="shape=line;dashed=1;strokeColor=#d9d9d9;" parent="1" vertex="1">
          <mxGeometry x="120" y="720" width="1450" height="1" as="geometry" />
        </mxCell>
        <mxCell id="lblUI" value="前端UI" style="whiteSpace=wrap;strokeColor=none;fillColor=none;align=left;verticalAlign=middle;fontSize=14;fontColor=#595959;" parent="1" vertex="1">
          <mxGeometry x="40" y="95" width="70" height="30" as="geometry" />
        </mxCell>
        <mxCell id="lblStrategy" value="策略层" style="whiteSpace=wrap;strokeColor=none;fillColor=none;align=left;verticalAlign=middle;fontSize=14;fontColor=#595959;" parent="1" vertex="1">
          <mxGeometry x="40" y="255" width="70" height="30" as="geometry" />
        </mxCell>
        <mxCell id="lblFeature" value="特征层" style="whiteSpace=wrap;strokeColor=none;align=left;verticalAlign=middle;fontSize=14;fontColor=#595959;fillColor=none;" parent="1" vertex="1">
          <mxGeometry x="40" y="430" width="70" height="30" as="geometry" />
        </mxCell>
        <mxCell id="lblDataSrc" value="数据源层" style="whiteSpace=wrap;strokeColor=none;align=left;verticalAlign=middle;fontSize=14;fontColor=#595959;fillColor=none;" parent="1" vertex="1">
          <mxGeometry x="40" y="610" width="80" height="30" as="geometry" />
        </mxCell>
        <mxCell id="lblDB" value="数据库" style="whiteSpace=wrap;strokeColor=none;align=left;verticalAlign=middle;fontSize=14;fontColor=#595959;fillColor=none;" parent="1" vertex="1">
          <mxGeometry x="40" y="820" width="70" height="30" as="geometry" />
        </mxCell>
        <mxCell id="gFront" style="rounded=1;fillColor=#f6ffed;strokeColor=#b7eb8f;strokeWidth=1;" parent="1" vertex="1">
          <mxGeometry x="120" y="70" width="1450" height="110" as="geometry" />
        </mxCell>
        <mxCell id="ui_html" value="Html" style="rounded=1;whiteSpace=wrap;align=center;verticalAlign=middle;fillColor=#ffffff;strokeColor=#bfbfbf;" parent="gFront" vertex="1">
          <mxGeometry x="160" y="37" width="130" height="36" as="geometry" />
        </mxCell>
        <mxCell id="ui_js" value="JavaScript" style="rounded=1;whiteSpace=wrap;align=center;verticalAlign=middle;fillColor=#ffffff;strokeColor=#bfbfbf;" parent="gFront" vertex="1">
          <mxGeometry x="360" y="37" width="150" height="36" as="geometry" />
        </mxCell>
        <mxCell id="ui_vue" value="Vue" style="rounded=1;whiteSpace=wrap;align=center;verticalAlign=middle;fillColor=#ffffff;strokeColor=#bfbfbf;" parent="gFront" vertex="1">
          <mxGeometry x="560" y="37" width="130" height="36" as="geometry" />
        </mxCell>
        <mxCell id="ui_g6" value="AntV G6" style="rounded=1;whiteSpace=wrap;align=center;verticalAlign=middle;fillColor=#ffffff;strokeColor=#bfbfbf;" parent="gFront" vertex="1">
          <mxGeometry x="740" y="37" width="150" height="36" as="geometry" />
        </mxCell>
        <mxCell id="gStrategyBG" style="rounded=1;fillColor=#fff7e6;strokeColor=#ffd591;strokeWidth=1;" parent="1" vertex="1">
          <mxGeometry x="120" y="220" width="1375" height="130" as="geometry" />
        </mxCell>
        <mxCell id="stFrame1" value="策略类型划分" style="rounded=1;fillColor=none;strokeColor=#bfbfbf;whiteSpace=wrap;align=left;verticalAlign=top;spacingLeft=10;spacingTop=8;fontSize=13;" parent="gStrategyBG" vertex="1">
          <mxGeometry x="160" y="30" width="260" height="70" as="geometry" />
        </mxCell>
        <mxCell id="stFrame2" value="关系构建" style="rounded=1;fillColor=none;strokeColor=#bfbfbf;whiteSpace=wrap;align=left;verticalAlign=top;spacingLeft=10;spacingTop=8;fontSize=13;" parent="gStrategyBG" vertex="1">
          <mxGeometry x="450" y="30" width="420" height="70" as="geometry" />
        </mxCell>
        <mxCell id="st2_inner1" value="等值/正则匹配" style="rounded=1;fillColor=#ffffff;strokeColor=#bfbfbf;whiteSpace=wrap;align=center;verticalAlign=middle;" parent="stFrame2" vertex="1">
          <mxGeometry x="20" y="28" width="160" height="32" as="geometry" />
        </mxCell>
        <mxCell id="st2_inner2" value="倒排索引" style="rounded=1;fillColor=#ffffff;strokeColor=#bfbfbf;whiteSpace=wrap;align=center;verticalAlign=middle;" parent="stFrame2" vertex="1">
          <mxGeometry x="210" y="28" width="120" height="32" as="geometry" />
        </mxCell>
        <mxCell id="gFeatureBG" style="rounded=1;fillColor=#e6f7ff;strokeColor=#91d5ff;strokeWidth=1;" parent="1" vertex="1">
          <mxGeometry x="120" y="370" width="1300" height="160" as="geometry" />
        </mxCell>
        <mxCell id="f1" value="特征关系建立" style="rounded=1;fillColor=#ffffff;strokeColor=#bfbfbf;whiteSpace=wrap;align=center;verticalAlign=middle;" parent="gFeatureBG" vertex="1">
          <mxGeometry x="160" y="78" width="160" height="36" as="geometry" />
        </mxCell>
        <mxCell id="f2" value="依赖树构建" style="rounded=1;fillColor=#ffffff;strokeColor=#bfbfbf;whiteSpace=wrap;align=center;verticalAlign=middle;" parent="gFeatureBG" vertex="1">
          <mxGeometry x="360" y="78" width="150" height="36" as="geometry" />
        </mxCell>
        <mxCell id="f3" value="属性匹配" style="rounded=1;fillColor=#ffffff;strokeColor=#bfbfbf;whiteSpace=wrap;align=center;verticalAlign=middle;" parent="gFeatureBG" vertex="1">
          <mxGeometry x="540" y="78" width="130" height="36" as="geometry" />
        </mxCell>
        <mxCell id="f4" value="逻辑剪枝" style="rounded=1;fillColor=#ffffff;strokeColor=#bfbfbf;whiteSpace=wrap;align=center;verticalAlign=middle;" parent="gFeatureBG" vertex="1">
          <mxGeometry x="700" y="78" width="130" height="36" as="geometry" />
        </mxCell>
        <mxCell id="f5" value="迭代算法" style="rounded=1;fillColor=#ffffff;strokeColor=#bfbfbf;whiteSpace=wrap;align=center;verticalAlign=middle;" parent="gFeatureBG" vertex="1">
          <mxGeometry x="860" y="78" width="130" height="36" as="geometry" />
        </mxCell>
        <mxCell id="f6" value="..." style="rounded=1;fillColor=#ffffff;strokeColor=#bfbfbf;whiteSpace=wrap;align=center;verticalAlign=middle;" parent="gFeatureBG" vertex="1">
          <mxGeometry x="1020" y="78" width="60" height="36" as="geometry" />
        </mxCell>
        <mxCell id="gDataSrcBG" style="rounded=1;fillColor=#f9f0ff;strokeColor=#d3adf7;strokeWidth=1;" parent="1" vertex="1">
          <mxGeometry x="120" y="560" width="1300" height="160" as="geometry" />
        </mxCell>
        <mxCell id="p1" value="依赖关系建立" style="rounded=1;fillColor=#ffffff;strokeColor=#bfbfbf;whiteSpace=wrap;align=center;verticalAlign=middle;" parent="gDataSrcBG" vertex="1">
          <mxGeometry x="160" y="78" width="160" height="36" as="geometry" />
        </mxCell>
        <mxCell id="p2" value="读写数据集" style="rounded=1;fillColor=#ffffff;strokeColor=#bfbfbf;whiteSpace=wrap;align=center;verticalAlign=middle;" parent="gDataSrcBG" vertex="1">
          <mxGeometry x="360" y="78" width="150" height="36" as="geometry" />
        </mxCell>
        <mxCell id="p3" value="边构造" style="rounded=1;fillColor=#ffffff;strokeColor=#bfbfbf;whiteSpace=wrap;align=center;verticalAlign=middle;" parent="gDataSrcBG" vertex="1">
          <mxGeometry x="540" y="78" width="130" height="36" as="geometry" />
        </mxCell>
        <mxCell id="p4" value="依赖树构建" style="rounded=1;fillColor=#ffffff;strokeColor=#bfbfbf;whiteSpace=wrap;align=center;verticalAlign=middle;" parent="gDataSrcBG" vertex="1">
          <mxGeometry x="700" y="78" width="150" height="36" as="geometry" />
        </mxCell>
        <mxCell id="p5" value="..." style="rounded=1;fillColor=#ffffff;strokeColor=#bfbfbf;whiteSpace=wrap;align=center;verticalAlign=middle;" parent="gDataSrcBG" vertex="1">
          <mxGeometry x="880" y="78" width="60" height="36" as="geometry" />
        </mxCell>
        <mxCell id="gDBBG" style="rounded=1;fillColor=#fff1f0;strokeColor=#ffa39e;strokeWidth=1;" parent="1" vertex="1">
          <mxGeometry x="120" y="750" width="1450" height="170" as="geometry" />
        </mxCell>
        <mxCell id="db1" value="MySQL" style="shape=ellipse;whiteSpace=wrap;fillColor=#ffffff;strokeColor=#bfbfbf;align=center;verticalAlign=middle;" parent="gDBBG" vertex="1">
          <mxGeometry x="360" y="75" width="110" height="68" as="geometry" />
        </mxCell>
        <mxCell id="db2" value="MySQL" style="shape=ellipse;whiteSpace=wrap;fillColor=#ffffff;strokeColor=#bfbfbf;align=center;verticalAlign=middle;" parent="gDBBG" vertex="1">
          <mxGeometry x="560" y="75" width="110" height="68" as="geometry" />
        </mxCell>
        <mxCell id="db3" value="MySQL" style="shape=ellipse;whiteSpace=wrap;fillColor=#ffffff;strokeColor=#bfbfbf;align=center;verticalAlign=middle;" parent="gDBBG" vertex="1">
          <mxGeometry x="760" y="75" width="110" height="68" as="geometry" />
        </mxCell>
        <mxCell id="cacheBar" value="缓存" style="rounded=1;whiteSpace=wrap;align=center;verticalAlign=middle;fillColor=#ffffff;strokeColor=#8c8c8c;fontSize=13;labelRotation=270;" parent="1" vertex="1">
          <mxGeometry x="1435" y="370" width="60" height="350" as="geometry" />
        </mxCell>
        <mxCell id="listenerBar" value="数据变更监听" style="rounded=1;whiteSpace=wrap;align=center;verticalAlign=middle;fillColor=#ffffff;strokeColor=#8c8c8c;fontSize=13;labelRotation=270;" parent="1" vertex="1">
          <mxGeometry x="1510" y="220" width="60" height="500" as="geometry" />
        </mxCell>
        <mxCell id="edge_strategy_feature" style="edgeStyle=orthogonalEdgeStyle;rounded=1;endArrow=block;strokeColor=#595959;strokeWidth=1;" parent="1" source="gStrategyBG" target="gFeatureBG" edge="1">
          <mxGeometry relative="1" as="geometry" />
        </mxCell>
        <mxCell id="edge_feature_datasrc" style="edgeStyle=orthogonalEdgeStyle;rounded=1;endArrow=block;strokeColor=#595959;strokeWidth=1;" parent="1" source="gFeatureBG" target="gDataSrcBG" edge="1">
          <mxGeometry relative="1" as="geometry" />
        </mxCell>
        <mxCell id="edge_datasrc_db" style="edgeStyle=orthogonalEdgeStyle;rounded=1;endArrow=block;strokeColor=#595959;strokeWidth=1;" parent="1" source="gDataSrcBG" target="gDBBG" edge="1">
          <mxGeometry relative="1" as="geometry" />
        </mxCell>
      </root>
    </mxGraphModel>
  </diagram>
</mxfile>
